<?xml version="1.0" encoding="iso-8859-1"?>
<!-- Generator: Adobe Illustrator 18.0.0, SVG Export Plug-In . SVG Version: 6.00 Build 0)  -->
<!DOCTYPE svg PUBLIC "-//W3C//DTD SVG 1.1//EN" "http://www.w3.org/Graphics/SVG/1.1/DTD/svg11.dtd">
<svg version="1.1" id="Capa_1" xmlns="http://www.w3.org/2000/svg" xmlns:xlink="http://www.w3.org/1999/xlink" x="0px" y="0px"
	 viewBox="0 0 49.585 49.585" style="enable-background:new 0 0 49.585 49.585;" xml:space="preserve">
<g>
	<path style="fill:#1D1D1B;" d="M49.094,6.173c-0.001-0.017-0.009-0.03-0.013-0.046c0.12-0.085,0.195-0.231,0.146-0.419
		c-0.935-3.62-3.37-5.16-7.016-5.456C35.447-0.297,28.336,0.473,21.551,0.61c-5.325,0.108-12.2-0.866-17.328,0.737
		c-1.898,0.594-3.2,1.803-3.495,3.498c-0.18-0.04-0.393,0.056-0.397,0.298c-0.113,8.456-0.046,16.933,0.012,25.391
		c0.033,4.824-1.702,12.809,2.329,16.519c3.851,3.544,10.79,2.264,15.446,2.19c8.003-0.128,15.991-0.059,23.987-0.368
		c0.023,0.02,0.051,0.036,0.088,0.038c3.984,0.205,5.65-1.562,6.377-4.117c0.048-0.001,0.095-0.002,0.143-0.003
		c0.152-0.003,0.152-0.238,0-0.236c-0.028,0-0.056,0.001-0.085,0.002c0.152-0.589,0.249-1.224,0.326-1.876
		c0.063-0.014,0.052-0.079,0.011-0.116c0.166-1.486,0.193-3.085,0.243-4.66C49.545,27.266,49.903,16.803,49.094,6.173z
		 M44.709,24.422c1.409,0.094,2.853,0.271,4.268,0.248c0,1.105,0.004,2.212-0.001,3.314c-0.015,3.302-0.045,6.624-0.169,9.923
		c-0.036,0.97,0.041,3.009-0.074,4.632c-1.829,0.006-3.67,0.199-5.5,0.248c-0.075,0.002-0.075,0.115,0,0.116
		c1.81,0.016,3.688,0.054,5.488-0.191c-0.061,0.752-0.167,1.399-0.351,1.784c-0.012,0.025-0.027,0.045-0.039,0.069
		c-6.202,0.078-12.398,0.3-18.591,0.63c-0.073,0.004-0.074,0.117,0,0.114c6.149-0.233,12.3-0.386,18.453-0.502
		c-1.113,2.008-3.111,2.938-5.145,3.568c-6.381-0.126-12.747-0.069-19.131,0.086c-3.222,0.078-6.439,0.088-9.661,0.101
		c-2.939,0.012-7.641,0.578-10.054-1.484c-5.048-4.314-2.929-15.504-2.99-21.425C1.145,19.325,1.135,12.989,1.003,6.664
		C1.077,6.637,1.142,6.582,1.142,6.49C1.133-0.98,18.88,1.467,23.452,1.404c4.87-0.067,17.754-2.089,22.974,1.769
		c-4.952-0.964-9.981-1.041-15.009-0.462c-0.106,0.012-0.108,0.18,0,0.169c5.233-0.54,10.328-0.22,15.48,0.675
		c0.629,0.565,1.121,1.233,1.423,2.035c-1.466-0.193-2.987-0.163-4.454-0.05c-0.11,0.008-0.112,0.177,0,0.173
		c1.523-0.056,3.019,0.036,4.537,0.099c0.013,0.039,0.031,0.073,0.042,0.112c0.015,0.05,0.04,0.088,0.066,0.125
		c-0.013,0.036-0.02,0.077-0.017,0.124c0.035,0.555,0.052,1.113,0.081,1.669c-1.567-0.169-3.184-0.039-4.739,0.173
		c-0.101,0.014-0.078,0.193,0.024,0.18c1.583-0.191,3.137-0.172,4.724-0.171c0.055,1.075,0.116,2.148,0.157,3.225
		c-0.01-0.005-0.017-0.014-0.03-0.016c-1.391-0.162-2.816-0.159-4.215-0.222c-0.104-0.005-0.102,0.153,0,0.16
		c1.397,0.096,2.814,0.261,4.215,0.258c0.016,0,0.024-0.009,0.036-0.014c0.111,2.896,0.177,5.798,0.206,8.699
		c-3.933-0.931-8.034-1.085-12.046-0.673c-0.11,0.011-0.113,0.184,0,0.175c4.095-0.313,8.013,0.001,12.047,0.724
		c0.013,1.38,0.021,2.76,0.022,4.139c-1.404-0.175-2.856-0.162-4.268-0.223C44.603,24.253,44.604,24.415,44.709,24.422z"/>
	<path style="fill:#1D1D1B;" d="M21.551,15.563c-0.098-0.034-0.208-0.046-0.339-0.001C9.566,19.506,16.358,40,28.514,35.384
		C40.496,30.833,33.112,10.361,21.551,15.563z M28.036,34.015c-10.529,4.04-16.814-13.466-6.521-17.355
		c0.242-0.091,0.358-0.29,0.38-0.495c5.199-0.977,9.973,1.504,11.42,6.857C34.514,27.457,32.392,32.343,28.036,34.015z"/>
	<path style="fill:#1D1D1B;" d="M43.247,9.036c-0.037-0.993-0.009-2.134-0.966-2.708c-0.669-0.401-1.607-0.273-2.333-0.29
		c-1.061-0.024-2.119-0.09-3.179-0.124c-1.2-0.038-2.285-0.104-3.026,0.943c-0.135,0.19-0.065,0.399,0.078,0.539
		c-0.125,2.241-0.07,4.577,0.15,6.81c0.1,1.016,0.245,1.565,1.296,1.814c1.837,0.435,4.194,0.219,6.059,0.076
		c0.91-0.069,1.529-0.195,1.793-1.142C43.602,13.227,43.313,10.815,43.247,9.036z M42.033,14.587
		c-0.535,0.779-2.898,0.482-3.697,0.486c-0.443,0.002-0.887,0.001-1.33-0.006c-0.974-0.016-1.122,0.148-1.684-0.632
		c-0.705-0.979-0.462-2.694-0.56-3.877c-0.086-1.034-0.198-2.07-0.361-3.095c0.021-0.017,0.044-0.026,0.063-0.049
		c0.742-0.888,2.738-0.559,3.718-0.56c0.967-0.002,3.362-0.355,3.909,0.717c0.398,0.781,0.056,2.655,0.042,3.548
		C42.123,11.788,42.423,14.02,42.033,14.587z"/>
	<path style="fill:#1D1D1B;" d="M48.502,27.866c-1.249-0.13-2.523-0.146-3.783-0.178c-0.02-2.027-0.114-4.021-0.308-5.909
		c-0.028-0.271-0.239-0.414-0.454-0.438c-0.057-0.133-0.158-0.25-0.297-0.304c-1.374-0.541-3.052-0.234-4.431,0.132
		c-0.033,0.009-0.056,0.028-0.084,0.042c-0.258,0.045-0.496,0.226-0.515,0.559c-0.532,8.99-5.551,18.592-15.979,16.889
		c-8.996-1.47-10.616-10.154-11.76-17.648c-0.048-0.316-0.596-0.319-0.641,0c-0.002,0.012-0.002,0.024-0.003,0.035
		c-1.115-0.492-2.633-0.38-3.872-0.08c-0.134-0.052-0.3-0.012-0.404,0.109c-0.061,0.018-0.127,0.034-0.186,0.052
		c-0.198,0.062-0.242,0.412,0,0.448c0.02,0.003,0.042,0.006,0.061,0.009c-0.78,6.329-0.759,13.186-0.088,19.513
		c0.011,0.105,0.058,0.184,0.12,0.242c0.224,3.76,6.167,2.781,8.794,2.753c8.566-0.089,17.171,0.353,25.729-0.073
		c0.14-0.007,0.244-0.063,0.321-0.14c1.89-0.339,2.646-1.19,3.006-3.284c0.684-3.977,1.024-8.437,0.992-12.745
		c1.257,0.093,2.526,0.205,3.781,0.2C48.623,28.049,48.618,27.878,48.502,27.866z M43.283,31.869
		c-0.249,3.12,0.525,9.353-2.751,11.22c-0.042-0.012-0.081-0.028-0.13-0.03c-5.267-0.198-10.563,0.009-15.833,0.085
		C21.6,43.186,8.342,44.937,6.481,41.131c0.001-0.013,0.007-0.022,0.007-0.036c0.026-6.463,0.109-12.956,0.079-19.418
		c1.194,0.144,2.592,0.215,3.636-0.143c-0.863,8.077,4.382,17.613,13.046,18.452c10.997,1.065,15.907-8.208,16.557-17.842
		c1.222-0.025,2.491,0.068,3.685-0.141C43.82,25.321,43.548,28.552,43.283,31.869z"/>
	<path style="fill:#1D1D1B;" d="M46.389,46.484c-9.131,0.372-18.274,0.495-27.402,0.894c-0.082,0.004-0.083,0.128,0,0.129
		c9.126,0.049,18.286-0.389,27.402-0.783C46.543,46.717,46.544,46.477,46.389,46.484z"/>
	<path style="fill:#1D1D1B;" d="M48.509,40.013c-1.474-0.013-2.966,0.151-4.438,0.246c-0.086,0.006-0.087,0.138,0,0.135
		c1.473-0.057,2.973-0.046,4.438-0.21C48.616,40.172,48.622,40.014,48.509,40.013z"/>
	<path style="fill:#1D1D1B;" d="M48.739,37.348c-1.371-0.309-2.849-0.29-4.242-0.185c-0.095,0.007-0.097,0.154,0,0.15
		c1.429-0.059,2.798,0.099,4.217,0.222C48.82,37.544,48.843,37.372,48.739,37.348z"/>
	<path style="fill:#1D1D1B;" d="M48.713,33.983c-1.326-0.093-2.677-0.009-4.006,0.003c-0.106,0.001-0.106,0.163,0,0.164
		c1.329,0.013,2.68,0.096,4.006,0.003C48.823,34.147,48.823,33.991,48.713,33.983z"/>
	<path style="fill:#1D1D1B;" d="M48.516,31.067c-1.168-0.36-2.442-0.326-3.619-0.03c-0.056,0.014-0.032,0.097,0.023,0.085
		c1.228-0.246,2.338-0.168,3.552,0.101C48.575,31.246,48.616,31.098,48.516,31.067z"/>
	<path style="fill:#1D1D1B;" d="M48.746,22.135c-1.232-0.361-2.619-0.293-3.856,0.01c-0.082,0.02-0.046,0.137,0.034,0.124
		c1.309-0.216,2.494-0.144,3.802,0.013C48.812,22.292,48.824,22.158,48.746,22.135z"/>
	<path style="fill:#1D1D1B;" d="M48.714,17.095c-4.128-0.469-8.338-0.222-12.444,0.337c-0.056,0.008-0.043,0.106,0.013,0.1
		c4.167-0.472,8.251-0.413,12.43-0.229C48.849,17.308,48.843,17.11,48.714,17.095z"/>
	<path style="fill:#1D1D1B;" d="M48.712,14.14c-1.763,0.143-3.498,0.288-5.269,0.26c-0.078-0.001-0.077,0.116,0,0.12
		c1.757,0.087,3.553,0.082,5.296-0.185C48.848,14.318,48.823,14.131,48.712,14.14z"/>
</g>
<g>
</g>
<g>
</g>
<g>
</g>
<g>
</g>
<g>
</g>
<g>
</g>
<g>
</g>
<g>
</g>
<g>
</g>
<g>
</g>
<g>
</g>
<g>
</g>
<g>
</g>
<g>
</g>
<g>
</g>
</svg>
