<?xml version="1.0" encoding="iso-8859-1"?>
<!-- Generator: Adobe Illustrator 18.0.0, SVG Export Plug-In . SVG Version: 6.00 Build 0)  -->
<!DOCTYPE svg PUBLIC "-//W3C//DTD SVG 1.1//EN" "http://www.w3.org/Graphics/SVG/1.1/DTD/svg11.dtd">
<svg version="1.1" id="Capa_1" xmlns="http://www.w3.org/2000/svg" xmlns:xlink="http://www.w3.org/1999/xlink" x="0px" y="0px"
	 viewBox="0 0 49.553 49.553" style="enable-background:new 0 0 49.553 49.553;" xml:space="preserve">
<g>
	<path style="fill:#1D1D1B;" d="M48.187,18.067c-3.463-7.553-17.033-12.323-23.498-5.995c-0.043,0.042-0.063,0.087-0.09,0.132
		c-2.574-2.327-6.702-3.256-9.917-1.819c-2.686,1.201-4.511,3.843-4.293,6.729c-9.513-1.85-13.054,11.84-8.264,18.37
		c2.789,3.803,7.514,4.226,11.872,4.46c7.08,0.381,14.715,0.931,21.749-0.199C45.684,38.149,52.619,27.733,48.187,18.067z
		 M47.98,26.392c-5.618-0.275-11.257-0.336-16.88-0.456c-0.084-0.002-0.084,0.128,0,0.131c5.613,0.194,11.24,0.446,16.857,0.485
		c-0.121,0.69-0.294,1.361-0.52,2.007c-3.693-0.004-7.381,0.042-11.075-0.036c-0.106-0.002-0.106,0.161,0,0.165
		c3.659,0.132,7.339,0.215,11.001,0.087c-0.3,0.809-0.675,1.582-1.125,2.31c-5.682,0.063-11.36,0.062-17.042-0.079
		c-0.077-0.002-0.077,0.118,0,0.12c5.629,0.198,11.263,0.281,16.896,0.189c-0.534,0.829-1.155,1.603-1.857,2.311
		c-0.01-0.027-0.029-0.05-0.066-0.051c-8.515-0.347-17.021-0.616-25.526-1.188c-0.069-0.005-0.068,0.102,0,0.108
		c8.474,0.667,16.981,1.206,25.484,1.238c-2.78,2.743-6.722,4.501-10.938,4.846c-6.865,0.563-14.034,0.39-20.882-0.277
		c-5.144-0.501-9.28-2.343-10.546-7.88C0.329,24.157,4.21,18.46,10.583,18.085c0.149,0.201,0.461,0.142,0.562-0.093
		c0.205-0.128,0.258-0.424,0.107-0.605c0.321-3.016,2.274-5.491,5.362-6.09c2.871-0.557,5.158,0.717,7.514,2.157
		c0.38,0.232,0.779-0.014,0.902-0.353c0.176,0.038,0.369,0.008,0.54-0.148c3.761-3.425,9.657-3.05,14.444-0.673
		c-3.042-0.165-6.091-0.15-9.133-0.003c-0.074,0.004-0.075,0.118,0,0.116c3.227-0.099,6.436-0.019,9.655,0.144
		c1.12,0.601,2.171,1.311,3.107,2.108c-3.865-0.539-7.797-0.696-11.693-0.572c-0.079,0.003-0.079,0.127,0,0.123
		c0.207-0.009,0.415-0.019,0.622-0.028c0.045-0.002,0.045-0.068,0-0.07c3.789,0.152,7.585,0.401,11.373,0.809
		c0.845,0.756,1.599,1.576,2.204,2.458c-4.437-0.385-8.918-0.44-13.366-0.341c-0.072,0.002-0.072,0.112,0,0.112
		c4.521-0.019,9.009,0.207,13.518,0.458c0.544,0.834,0.968,1.712,1.236,2.621c0.009,0.03,0.013,0.059,0.022,0.089
		c-4.995-0.257-9.991-0.514-14.987-0.745c-0.082-0.004-0.081,0.122,0,0.127c2.697,0.164,5.394,0.313,8.091,0.467
		c1.926,0.11,4.981,0.798,6.969,0.454c0.182,0.698,0.312,1.384,0.393,2.057c-3.888-0.097-7.77-0.167-11.659-0.343
		c-0.069-0.003-0.067,0.099,0,0.106c3.86,0.361,7.799,0.553,11.687,0.461C48.179,24.103,48.16,25.277,47.98,26.392z"/>
	<path style="fill:#1D1D1B;" d="M39.951,36.191c-9.975-0.427-19.979-0.213-29.937,0.476c-0.064,0.004-0.065,0.104,0,0.101
		c9.983-0.489,19.944-0.585,29.937-0.455C40.03,36.314,40.03,36.194,39.951,36.191z"/>
</g>
<g>
</g>
<g>
</g>
<g>
</g>
<g>
</g>
<g>
</g>
<g>
</g>
<g>
</g>
<g>
</g>
<g>
</g>
<g>
</g>
<g>
</g>
<g>
</g>
<g>
</g>
<g>
</g>
<g>
</g>
</svg>
