<?xml version="1.0" encoding="iso-8859-1"?>
<!-- Generator: Adobe Illustrator 18.0.0, SVG Export Plug-In . SVG Version: 6.00 Build 0)  -->
<!DOCTYPE svg PUBLIC "-//W3C//DTD SVG 1.1//EN" "http://www.w3.org/Graphics/SVG/1.1/DTD/svg11.dtd">
<svg version="1.1" id="Capa_1" xmlns="http://www.w3.org/2000/svg" xmlns:xlink="http://www.w3.org/1999/xlink" x="0px" y="0px"
	 viewBox="0 0 49.765 49.765" style="enable-background:new 0 0 49.765 49.765;" xml:space="preserve">
<g>
	<path style="fill:#1D1D1B;" d="M49.581,23.46C48.035,10.192,36.561-1.264,22.64,0.262C8.984,1.76-1.435,14.441,0.162,28.15
		C1.346,38.32,12.398,51.931,23.88,49.311c0.095,0.072,0.21,0.126,0.362,0.127C39.286,49.511,51.415,39.198,49.581,23.46z
		 M48.137,29.453c-2.149,0.167-4.209,0.17-6.369-0.169c-0.111-0.017-0.16,0.148-0.047,0.171c2.088,0.411,4.267,0.521,6.382,0.23
		c-0.548,4.067-2.13,7.571-4.509,10.391c-3.419-0.017-6.841,0.085-10.261,0.061c-0.087-0.001-0.087,0.133,0,0.135
		c3.351,0.092,6.74,0.164,10.094-0.001c-1.362,1.573-2.961,2.939-4.764,4.063c-0.017-0.011-0.033-0.025-0.059-0.025
		c-7.174-0.004-14.342-0.138-21.511-0.441c-0.067-0.003-0.066,0.1,0,0.103c7.073,0.374,14.151,0.577,21.234,0.574
		c-3.958,2.372-8.82,3.643-14.085,3.628c-0.206-0.001-0.359,0.081-0.461,0.201C12.187,49.781,1.824,37.406,1.239,26.7
		C0.528,13.677,11.069,2.048,24.13,1.428c4.362-0.207,8.368,0.888,11.815,2.895c-3.25-0.37-6.515-0.656-9.771-0.951
		c-0.079-0.007-0.077,0.114,0,0.122c3.386,0.381,6.78,0.778,10.175,1.072c1.325,0.81,2.567,1.751,3.707,2.812
		c-5.769-0.41-11.528-0.846-17.277-1.483c-0.072-0.008-0.071,0.104,0,0.112c5.822,0.674,11.66,1.269,17.512,1.605
		c0.003,0,0.003-0.002,0.006-0.002c0.895,0.856,1.732,1.78,2.495,2.767c-5.046-0.331-10.097-0.604-15.146-0.896
		c-0.069-0.004-0.069,0.103,0,0.108c5.114,0.356,10.228,0.733,15.345,1.049c0.759,1.009,1.456,2.07,2.065,3.188
		c-3.849-0.623-7.838-0.864-11.722-0.825c-0.071,0.001-0.07,0.106,0,0.11c3.969,0.201,7.888,0.567,11.837,0.944
		c0.528,0.991,1.003,2.014,1.404,3.071c-1.748-0.096-3.487-0.192-5.228-0.412c-0.081-0.01-0.101,0.132-0.019,0.143
		c1.762,0.249,3.547,0.447,5.328,0.481c0.322,0.87,0.617,1.752,0.848,2.657c-1.367,0.017-2.669-0.007-4.029-0.311
		c-0.128-0.029-0.183,0.166-0.054,0.197c1.332,0.325,2.764,0.505,4.139,0.346c0.238,0.967,0.428,1.949,0.556,2.944
		c-1.503-0.012-2.941-0.013-4.437-0.293c-0.104-0.02-0.15,0.138-0.044,0.161c1.457,0.307,3.013,0.501,4.502,0.327
		c0.036,0.298,0.072,0.595,0.098,0.894C48.393,26.084,48.341,27.809,48.137,29.453z"/>
	<path style="fill:#1D1D1B;" d="M41.692,18.174c0.055-0.143,0.027-0.323-0.127-0.418c-8.339-5.111-23.36-7.801-32.374-3.102
		c-0.057,0.03-0.093,0.074-0.12,0.123C8.56,14.94,8.088,15.414,7.84,15.833c-0.41,0.692-0.478,1.645-0.152,2.379
		c0.323,0.728,1.025,1.275,1.79,1.47c0.654,0.167,1.092,0.049,1.528-0.223c0.057,0.015,0.12,0.02,0.19,0.007
		c10.175-1.919,17.945-0.584,27.524,2.899c0.039,0.014,0.067-0.003,0.101-0.005c1.052,0.495,2.392,0.318,3.146-0.65
		C42.722,20.74,42.754,18.931,41.692,18.174z M41.123,21.059c-0.624,0.864-1.872,0.932-2.687,0.332
		c-0.096-0.071-0.196-0.061-0.277-0.012c-7.804-4.629-18.676-5.328-27.172-2.676c-0.029,0.009-0.047,0.025-0.071,0.038
		c-0.784,0.042-1.791-0.378-2.121-0.974c-0.259-0.467-0.221-0.959-0.05-1.447c0.17-0.486,0.48-0.733,0.798-1.06
		c10.276-4.286,21.458-0.478,31.332,2.953c-0.041,0.117-0.043,0.25,0.009,0.358C41.269,19.374,41.738,20.208,41.123,21.059z"/>
	<path style="fill:#1D1D1B;" d="M39.897,26.81c-0.16-0.425-0.512-0.746-0.95-0.825c0.241-0.091,0.357-0.431,0.066-0.602
		c-8.252-4.859-18.967-5.985-28.038-2.886c-0.015,0.005-0.023,0.014-0.036,0.02c-0.053-0.03-0.113-0.045-0.184-0.023
		c-1.163,0.369-1.532,1.985-1.153,3.02c0.193,0.528,0.588,1.03,1.068,1.329c0.405,0.252,0.739,0.306,1.096,0.259
		c0.051,0.029,0.109,0.05,0.18,0.04c7.948-1.107,17.037-2.129,24.058,2.579c0.135,0.091,0.27,0.059,0.367-0.026
		c1.118,0.537,2.455-0.164,3.162-1.104C39.916,28.08,40.132,27.434,39.897,26.81z M36.316,29.098c-0.003-0.001-0.005,0.002-0.008,0
		c-5.448-5.576-17.425-4.522-24.247-2.524c-0.617-0.292-1.301-0.838-1.505-1.391c-0.294-0.798,0.023-1.388,0.365-2.046
		c0.066,0.034,0.145,0.051,0.239,0.031c9.823-2.084,18.297-1.249,27.501,2.804c-0.128,0.047-0.215,0.221-0.088,0.323
		C40.044,27.47,37.659,29.539,36.316,29.098z"/>
	<path style="fill:#1D1D1B;" d="M36.574,32.69c-7.336-4.797-16.875-5.227-25.125-2.744c-0.121,0.037-0.184,0.115-0.207,0.203
		c-1.135,0.269-1.143,1.878-0.581,2.735c0.662,1.008,1.817,1.573,2.759,0.821c6.06-1.328,13.846,0.162,19.291,2.83
		c0.313,0.153,0.594-0.025,0.698-0.269c0.911,0.178,1.879,0.14,2.605-0.518c0.558-0.505,0.989-1.573,0.49-2.242
		C36.798,33.379,36.93,32.923,36.574,32.69z M35.243,35.261c-0.52,0.43-1.213,0.544-1.881,0.551
		c-0.038-0.048-0.085-0.094-0.149-0.132c-5.309-3.137-14.371-4.533-20.235-2.507c-0.09,0.031-0.148,0.088-0.181,0.154
		c-1.138-0.094-2.365-2.053-1.067-2.692c0.059-0.029,0.091-0.074,0.113-0.123c8.544-1.351,16.298-1.416,24.082,2.872
		c-0.028,0.042-0.048,0.091-0.052,0.151C35.836,34.218,35.824,34.781,35.243,35.261z"/>
	<path style="fill:#1D1D1B;" d="M32.904,46.73c-5.525-0.616-11.096-0.868-16.651-1.013c-0.056-0.001-0.056,0.084,0,0.086
		c5.567,0.202,11.101,0.661,16.651,1.116C33.027,46.93,33.023,46.743,32.904,46.73z"/>
	<path style="fill:#1D1D1B;" d="M40.714,42.087c-5.205,0.111-10.396,0.238-15.603,0.161c-0.075-0.001-0.074,0.114,0,0.116
		c5.195,0.141,10.413,0.179,15.603-0.108C40.821,42.249,40.823,42.084,40.714,42.087z"/>
	<path style="fill:#1D1D1B;" d="M44.721,37.696c-2.398,0.006-4.773,0.026-7.169-0.125c-0.096-0.006-0.093,0.139,0,0.148
		c2.37,0.218,4.792,0.334,7.169,0.165C44.841,37.876,44.844,37.696,44.721,37.696z"/>
	<path style="fill:#1D1D1B;" d="M45.992,35.405c-2.352,0.08-4.614,0.06-6.944-0.33c-0.107-0.018-0.154,0.145-0.045,0.165
		c2.296,0.41,4.666,0.609,6.99,0.336C46.099,35.563,46.105,35.401,45.992,35.405z"/>
	<path style="fill:#1D1D1B;" d="M46.825,32.752c-2.129-0.006-4.223-0.049-6.337-0.332c-0.091-0.012-0.114,0.148-0.022,0.162
		c2.099,0.307,4.239,0.489,6.359,0.337C46.931,32.911,46.934,32.752,46.825,32.752z"/>
	<path style="fill:#1D1D1B;" d="M48.104,26.116c-1.808,0.077-3.483,0.082-5.271-0.275c-0.102-0.02-0.146,0.131-0.043,0.157
		c1.711,0.425,3.595,0.609,5.336,0.278C48.215,26.259,48.195,26.112,48.104,26.116z"/>
</g>
<g>
</g>
<g>
</g>
<g>
</g>
<g>
</g>
<g>
</g>
<g>
</g>
<g>
</g>
<g>
</g>
<g>
</g>
<g>
</g>
<g>
</g>
<g>
</g>
<g>
</g>
<g>
</g>
<g>
</g>
</svg>
