<?xml version="1.0" encoding="iso-8859-1"?>
<!-- Generator: Adobe Illustrator 18.0.0, SVG Export Plug-In . SVG Version: 6.00 Build 0)  -->
<!DOCTYPE svg PUBLIC "-//W3C//DTD SVG 1.1//EN" "http://www.w3.org/Graphics/SVG/1.1/DTD/svg11.dtd">
<svg version="1.1" id="Capa_1" xmlns="http://www.w3.org/2000/svg" xmlns:xlink="http://www.w3.org/1999/xlink" x="0px" y="0px"
	 viewBox="0 0 48.919 48.919" style="enable-background:new 0 0 48.919 48.919;" xml:space="preserve">
<g>
	<path style="fill:#1D1D1B;" d="M46.988,32.722c-0.879-1.007-1.767-2.007-2.664-2.998c-1.077-1.19-2.6-2.478-3.177-4.031
		c2.121-2.461,3.968-5.171,5.661-7.941c0.962-1.575,2.532-3.472,1.916-5.36c0.074-0.146,0.029-0.357-0.159-0.432
		c-0.016-0.007-0.033-0.01-0.049-0.017c-0.069-0.075-0.158-0.1-0.247-0.084c-2.145-0.77-4.624-0.669-6.865-0.603
		c-1.447,0.043-2.829,0.014-4.001,0.813c-0.109,0.013-0.215,0.061-0.287,0.163c-0.027,0.038-0.049,0.078-0.076,0.116
		c-0.016,0.014-0.034,0.024-0.051,0.039c-0.07,0.063-0.101,0.137-0.112,0.211c-1.11,1.646-1.987,3.474-3.035,5.162
		c-0.564,0.91-1.143,1.813-1.737,2.704c-0.297,0.446-0.599,0.888-0.906,1.326c-0.441,0.97-1.198,1.138-2.272,0.505
		c-0.012-0.038-0.04-0.054-0.061-0.08c-0.029-1.236-0.179-2.467-0.152-3.708c0.035-1.593,0.396-3.146,0.489-4.728
		c0.094-1.602-0.337-3.053-1.978-3.521c-0.188-0.054-0.372,0.079-0.444,0.245c-1.872,0.173-3.51,0.217-5.436-0.165
		c-1.429-0.283-2.625-0.289-4.001,0.131c-0.182-0.076-0.429-0.022-0.466,0.207c-0.268,1.658,0.827,2.267,1.623,3.593
		c0.829,1.38,0.871,3.042,0.733,4.624c-0.071,0.814-0.105,3.687-1.158,4.002c-0.042,0.013-0.075,0.033-0.104,0.055
		c-1.751-0.235-4.249-5.451-4.774-6.317c-0.936-1.542-1.837-3.104-2.905-4.556c0.073-0.183,0.026-0.408-0.218-0.477
		c-0.052-0.015-0.107-0.025-0.159-0.039C9.907,11.55,9.9,11.54,9.893,11.53c-0.104-0.132-0.235-0.128-0.34-0.06
		c-2.48-0.606-5.436-0.662-7.903-0.301c-1.325,0.194-1.514,0.667-1.477,1.498c-0.109,0.037-0.2,0.14-0.165,0.27
		c2.03,7.406,6.497,14.189,11.925,19.567c4.137,4.099,9.645,8.084,15.585,5.411c0.139-0.063,0.139-0.203,0.074-0.31
		c0.429-0.327,0.779-0.666,1.084-1.132c0.204-0.312,0.355-0.647,0.517-0.981c0.65-1.347,0.278-1.668,2.069-1.804
		c1.513-0.114,1.334-0.105,2.271,0.707c0.513,0.444,1.034,0.88,1.564,1.304c0.776,0.622,1.581,1.202,2.396,1.77
		c1.42,1.707,4.751,1.048,6.664,1.077c1.53,0.023,3.904,0.216,4.469-1.462c0.149-0.044,0.273-0.169,0.286-0.387
		C49.012,35.054,48.02,33.905,46.988,32.722z M43.01,37.466c-1.171-0.03-3.342,0.23-4.621-0.338c-0.03-0.064-0.07-0.125-0.136-0.176
		c-1.701-1.303-3.254-2.739-4.891-4.111c-0.706-0.592-1.377-1.241-2.367-1.191c-2.333,0.119-2.847,4.138-3.969,5.584
		c-0.072,0.092-0.082,0.213-0.053,0.32C14.144,40.39,5.263,23.52,0.797,13.599c0.114-0.707-0.167-1.057,0.92-1.426
		c0.692-0.235,1.894-0.013,2.631,0.002c1.751,0.035,3.513,0.219,5.264,0.156c0.855,1.802,1.941,3.487,2.967,5.196
		c1.021,1.701,1.993,3.706,3.301,5.21c0.799,0.919,2.29,1.884,3.074,0.418c0.004-0.008,0-0.018,0.003-0.026
		c1.083-0.879,1.121-2.984,1.209-4.236c0.092-1.304-0.058-2.421-0.568-3.639c-0.578-1.381-1.9-2.5-2.041-4.019
		c1.86-0.11,3.528,0.447,5.364,0.648c1.501,0.164,3.018-0.074,4.468-0.463c0.441,0.596,0.61,1.331,0.651,2.116
		c-1.617-0.298-3.282-0.384-4.917-0.359c-0.068,0.001-0.068,0.105,0,0.105c1.67,0.003,3.291,0.199,4.926,0.45
		c0.012,0.479-0.018,0.972-0.064,1.463c-2.304-0.298-4.652-0.389-6.968-0.569c-0.08-0.006-0.079,0.117,0,0.124
		c2.309,0.212,4.634,0.517,6.951,0.612c-0.072,0.717-0.164,1.423-0.186,2.054c-0.009-0.006-0.007-0.02-0.02-0.02
		c-1.91-0.043-3.783-0.133-5.671-0.455c-0.077-0.013-0.11,0.104-0.033,0.118c1.878,0.343,3.793,0.557,5.704,0.459
		c0.01-0.001,0.008-0.013,0.016-0.016c-0.001,0.044-0.007,0.092-0.007,0.136c-0.005,0.733,0.005,1.475,0.054,2.213
		c-1.003-0.071-2.009-0.117-3.013-0.173c-0.077-0.004-0.077,0.115,0,0.12c1.006,0.068,2.013,0.146,3.021,0.199
		c0.057,0.771,0.161,1.536,0.348,2.28c-1.12-0.325-2.26-0.335-3.394-0.068c-0.068,0.016-0.039,0.118,0.029,0.104
		c1.126-0.241,2.226-0.2,3.34,0.084c0.025,0.006,0.035-0.014,0.048-0.029c0.046,0.177,0.077,0.359,0.133,0.534
		c0.023,0.07,0.067,0.118,0.118,0.149c0.383,1.424,2.458,0.803,3.339-0.203c2.343-2.676,4.701-6.519,5.885-9.938
		c1.575-0.771,3.708-0.582,5.402-0.609c1.649-0.027,3.272,0.174,4.91,0.222c0.028,0.357-0.039,0.747-0.156,1.15
		c-1.215,0.065-2.401,0.182-3.626,0.139c-0.042-0.002-0.039,0.059,0,0.063c1.158,0.136,2.419,0.184,3.58-0.027
		c-0.456,1.376-1.57,2.921-2.447,4.134c-1.218-0.047-2.446-0.004-3.664,0.003c-0.122,0.001-0.122,0.189,0,0.19
		c1.172,0.006,2.351,0.043,3.522,0.004c-0.243,0.336-0.464,0.645-0.639,0.91c-0.269,0.408-0.553,0.806-0.833,1.206
		c-1.536,0.036-3.054,0.025-4.588-0.142c-0.119-0.013-0.117,0.172,0,0.186c1.47,0.174,2.958,0.256,4.438,0.173
		c-0.6,0.852-1.211,1.696-1.833,2.532c-1.779-0.024-3.561,0.007-5.339,0.016c-0.102,0-0.102,0.158,0,0.158
		c1.731,0.009,3.465,0.037,5.197,0.017c-0.444,0.596-0.888,1.192-1.331,1.791c-0.082,0.11-0.098,0.226-0.08,0.337
		c-1.822-0.105-3.649-0.141-5.472-0.198c-0.11-0.003-0.11,0.167,0,0.171c1.819,0.072,3.641,0.166,5.461,0.192
		c0,0.001,0,0.002,0,0.003c0.095,0.885,0.515,1.62,1.051,2.295c-2.173,0.074-4.334,0.151-6.511,0.074
		c-0.088-0.003-0.088,0.133,0,0.137c2.206,0.096,4.434,0.125,6.638-0.06c0.517,0.624,1.12,1.204,1.643,1.811
		c0.194,0.225,0.41,0.458,0.639,0.698c-3.732-0.319-7.498-0.516-11.24-0.652c-0.069-0.003-0.067,0.1,0,0.105
		c3.779,0.313,7.59,0.568,11.382,0.693c0.638,0.662,1.362,1.373,2.039,2.124c-2.361-0.176-4.729-0.281-7.093-0.413
		c-0.054-0.003-0.054,0.081,0,0.084c2.399,0.157,4.799,0.341,7.201,0.45c0.454,0.512,0.883,1.039,1.234,1.581
		c-1.633-0.059-3.268-0.093-4.901-0.135c-0.733-0.019-2.461-0.445-3.03,0.117c-0.014,0.014-0.014,0.038,0,0.052
		c0.037,0.038,0.074,0.076,0.111,0.114c0.012,0.013,0.032,0.011,0.045,0l0.086-0.078c0.028-0.026-0.013-0.066-0.042-0.042
		c0.593-0.499,3.314,0.006,4.152,0.037c1.234,0.046,2.469,0.096,3.704,0.13c0.354,0.582,0.619,1.177,0.733,1.782
		C46.992,37.988,44.637,37.507,43.01,37.466z"/>
	<path style="fill:#1D1D1B;" d="M47.573,36.425c-2.813-0.33-5.684-0.678-8.491-0.922c0.084,0.007,0.08-0.118,0-0.129
		c-0.043-0.006-0.086-0.011-0.129-0.017c-0.031-0.004-0.055,0.024-0.065,0.049c-0.019,0.05-0.039,0.1-0.058,0.15
		c-0.008,0.022,0.001,0.053,0.018,0.069c0.613,0.544,2.177,0.352,2.935,0.424c1.928,0.183,3.858,0.391,5.79,0.523
		C47.669,36.579,47.665,36.435,47.573,36.425z"/>
	<path style="fill:#1D1D1B;" d="M46.54,15.566c-1.14,0.05-2.24,0.174-3.386,0.092c-0.108-0.008-0.106,0.157,0,0.167
		c1.112,0.1,2.312,0.158,3.408-0.093C46.655,15.71,46.636,15.562,46.54,15.566z"/>
</g>
<g>
</g>
<g>
</g>
<g>
</g>
<g>
</g>
<g>
</g>
<g>
</g>
<g>
</g>
<g>
</g>
<g>
</g>
<g>
</g>
<g>
</g>
<g>
</g>
<g>
</g>
<g>
</g>
<g>
</g>
</svg>
