<?xml version="1.0" encoding="iso-8859-1"?>
<!-- Generator: Adobe Illustrator 18.0.0, SVG Export Plug-In . SVG Version: 6.00 Build 0)  -->
<!DOCTYPE svg PUBLIC "-//W3C//DTD SVG 1.1//EN" "http://www.w3.org/Graphics/SVG/1.1/DTD/svg11.dtd">
<svg version="1.1" id="Capa_1" xmlns="http://www.w3.org/2000/svg" xmlns:xlink="http://www.w3.org/1999/xlink" x="0px" y="0px"
	 viewBox="0 0 49.879 49.879" style="enable-background:new 0 0 49.879 49.879;" xml:space="preserve">
<g>
	<path style="fill:#1D1D1B;" d="M49.641,15.275c-0.345-2.659-2.214-5.349-4.734-6.04c0.071-0.184,0.017-0.414-0.222-0.455
		C34.63,7.072,23.789,7.598,13.635,8.119C9.809,8.315-0.523,7.877,0.889,14.2c-1.161,5.825-0.892,12.213-0.78,18.118
		c0.066,3.496,0.506,6.949,4.011,8.594c4.477,2.102,10.956,1.124,15.706,1.144c6.985,0.03,14.004,0.005,20.979-0.421
		c0.032,0.081,0.061,0.15,0.111,0.258c0.065,0.14,0.284,0.017,0.209-0.122c-0.025-0.052-0.059-0.098-0.088-0.148
		c0.071-0.004,0.143-0.006,0.214-0.011c0.163-0.01,0.283-0.085,0.361-0.186c3.204,0.352,5.683-1.193,6.777-4.345
		c0.984-2.835,0.688-6.529,0.864-9.46c0.239-3.984,0.447-7.972,0.625-11.96C49.887,15.457,49.781,15.331,49.641,15.275z
		 M48.78,18.579c-5.898-0.569-11.864-0.467-17.768-0.052c-0.091,0.006-0.093,0.148,0,0.143c5.939-0.296,11.815-0.109,17.746,0.196
		c-0.124,1.589-0.246,3.179-0.364,4.769c-3.329,0.065-6.688,0.291-10.005,0.567c-0.068,0.006-0.07,0.108,0,0.108
		c3.317-0.04,6.672-0.134,9.983-0.384c-0.067,0.9-0.144,1.799-0.206,2.699c-0.005,0.069-0.006,0.149-0.01,0.219
		c-4.309-0.135-8.627-0.011-12.929,0.249c-0.135,0.008-0.137,0.216,0,0.211c4.307-0.175,8.605-0.177,12.914-0.139
		c-0.067,1.4-0.059,3.08-0.169,4.794c-6.58-0.554-13.182-0.247-19.702,0.781c-0.073,0.012-0.057,0.14,0.018,0.131
		c6.572-0.836,13.062-0.989,19.667-0.617c-0.052,0.719-0.127,1.437-0.242,2.136c-5.49-0.065-11.025,0.285-16.484,0.842
		c-0.081,0.008-0.084,0.133,0,0.129c5.478-0.316,10.95-0.479,16.431-0.693c-0.124,0.683-0.277,1.349-0.497,1.967
		c-0.019-0.053-0.056-0.099-0.129-0.101c-6.666-0.17-13.382,0.023-20.024,0.617c-0.066,0.006-0.069,0.108,0,0.105
		c6.678-0.214,13.342-0.367,20.024-0.416c0.025,0,0.037-0.016,0.056-0.024c-0.844,2.226-2.438,3.865-5.529,3.928
		c-0.077-0.065-0.175-0.111-0.309-0.109c-10.07,0.153-20.118,0.519-30.192,0.24c-3.653-0.101-7.944,0.071-9.518-4.596
		c-0.754-2.235-0.325-5.342-0.292-7.664c0.063-4.543,0.527-9.195,0.139-13.733c0.092-0.033,0.168-0.099,0.154-0.224
		C0.566,6.041,37.436,9.353,44.084,9.473c0.969,0.762,1.954,1.511,2.756,2.441c-4.337-0.314-8.789-0.092-13.098,0.352
		c-0.101,0.01-0.105,0.166,0,0.16c4.474-0.24,8.902-0.178,13.372-0.162c0.105,0.136,0.221,0.261,0.317,0.406
		c0.924,1.397,1.266,2.959,1.45,4.589C48.845,17.699,48.814,18.139,48.78,18.579z"/>
	<path style="fill:#1D1D1B;" d="M33.618,23.412c-3.199-1.891-6.479-3.684-9.79-5.369c-1.268-0.645-3.958-2.651-5.403-1.743
		c-0.22,0.138-0.235,0.416-0.125,0.607c-0.7,0.822-0.365,2.788-0.387,3.584c-0.107,3.892-0.085,7.787-0.135,11.679
		c-0.005,0.4,0.388,0.536,0.673,0.42c0.083,0.089,0.204,0.138,0.347,0.087c5.175-1.815,9.887-5.29,14.47-8.258
		C33.792,24.486,34.16,23.733,33.618,23.412z M18.745,31.869c0.066-2.563,0.153-5.125,0.217-7.689
		c0.052-2.074-0.408-5.042,0.029-7.11c1.047-0.004,3.477,1.631,4.228,2.012c0.996,0.505,1.99,1.015,2.977,1.536
		c1.957,1.033,3.883,2.122,5.829,3.175C27.608,26.509,23.269,29.327,18.745,31.869z"/>
	<path style="fill:#1D1D1B;" d="M45.561,38.358c-11.034,0.151-22.079,0.529-33.105,0.947c-0.12,0.005-0.121,0.19,0,0.188
		c11.032-0.172,22.08-0.384,33.105-0.823C45.761,38.662,45.762,38.355,45.561,38.358z"/>
	<path style="fill:#1D1D1B;" d="M47.243,29.594c-4.493-0.258-8.995-0.287-13.493-0.127c-0.099,0.003-0.099,0.155,0,0.154
		c4.504-0.054,8.994,0.049,13.493,0.268C47.434,29.898,47.432,29.605,47.243,29.594z"/>
	<path style="fill:#1D1D1B;" d="M48.296,21.214c-4.686-0.34-9.429-0.283-14.124-0.209c-0.103,0.002-0.103,0.16,0,0.16
		c4.711,0.025,9.416,0.252,14.124,0.296C48.457,21.463,48.453,21.226,48.296,21.214z"/>
	<path style="fill:#1D1D1B;" d="M47.689,15.569c-6.115-1.036-12.236-1.034-18.367-0.124c-0.075,0.011-0.058,0.145,0.018,0.135
		c6.14-0.797,12.143-0.651,18.259,0.314C47.811,15.928,47.904,15.605,47.689,15.569z"/>
</g>
<g>
</g>
<g>
</g>
<g>
</g>
<g>
</g>
<g>
</g>
<g>
</g>
<g>
</g>
<g>
</g>
<g>
</g>
<g>
</g>
<g>
</g>
<g>
</g>
<g>
</g>
<g>
</g>
<g>
</g>
</svg>
